<?xml version="1.0" encoding="UTF-8"?>
<svg width="364" height="30" xmlns="http://www.w3.org/2000/svg" xmlns:xlink="http://www.w3.org/1999/xlink">
  <defs>
    <path id="a" d="M.03765517.3625532H363.586421v29.5991489H.03765517z"/>
  </defs>
  <g fill="none" fill-rule="evenodd">
    <mask id="b" fill="#fff">
      <use xlink:href="#a"/>
    </mask>
    <path d="M221.570566 30c8.609855 0 15.357034-5.8512766 15.357034-14.8187234 0-8.96680851-6.747179-14.8187234-15.357034-14.8187234-8.6086 0-15.35578 5.85191489-15.35578 14.8187234C206.214786 24.1487234 212.961966 30 221.570566 30zM0 29.2844681h4.01466897V7.89893617L20.4059655 29.2844681h4.0152966V1.20510638h-4.0152966V22.5906383L4.01466897 1.20510638H0V29.2844681zm34.9345862 0H54.844131v-4.0831915H38.9492552v-7.9155319h13.3700965v-4.0831915H38.9492552V5.28765957H54.844131V1.20510638H34.9345862V29.2844681zm36.7558414 0h4.0152965V5.28765957h10.1411656V1.20510638H61.5492621v4.08255319h10.1411655V29.2844681zm41.8474484 0h4.387455l3.601717-7.9142553H135.5172l3.600462 7.9142553h4.388083L130.674117 1.20510638h-4.304614L113.537876 29.2844681zm63.039779 0h4.015297V17.2857447h11.796738c4.966717 0 8.278489-3.1148936 8.278489-8.04000002 0-4.92574468-3.311772-8.0406383-8.278489-8.0406383h-15.812035V29.2844681zm68.089966 0h4.014669V17.2857447h5.546607c4.015296 0 5.174448.9689362 8.113434 5.3897872l2.5662 3.8725532c.662103 1.0104255 1.448469 2.0623404 2.027731 2.736383h5.463766v-.0421277c-1.365628-1.1782978-2.1112-2.0629787-4.055462-4.9678723l-1.076311-1.5989362c-3.228931-4.7157447-3.477455-5.3048936-5.340131-6.4844681 3.560297-.9255319 5.546607-3.5355319 5.546607-7.15595742 0-4.96787234-3.311772-7.83-8.31991-7.83h-14.4872V29.2844681zm39.571193 0h4.014669V5.28765957h10.140538V1.20510638h-24.296373v4.08255319h10.141166V29.2844681zm21.647958 0h19.908918v-4.0831915h-15.894876v-7.9155319h13.370096v-4.0831915h-13.370096V5.28765957h15.894876V1.20510638h-19.908918V29.2844681zm29.967869 0h4.014042V17.2857447h5.547234c4.014669 0 5.173193.9689362 8.112807 5.3897872l2.5662 3.8725532c.662104 1.0104255 1.448469 2.0623404 2.028359 2.736383h5.463138v-.0421277c-1.365628-1.1782978-2.110573-2.0629787-4.05609-4.9678723l-1.075683-1.5989362c-3.229558-4.7157447-3.476827-5.3048936-5.339503-6.4844681 3.559669-.9255319 5.545979-3.5355319 5.545979-7.15595742 0-4.96787234-3.311772-7.83-8.319283-7.83h-14.4872V29.2844681zm-114.284075-3.1997872c-6.415187 0-11.134007-4.3780852-11.134007-10.9034043 0-6.52531915 4.71882-10.90404256 11.134007-10.90404256 6.457862 0 11.134634 4.37872341 11.134634 10.90404256 0 6.5253191-4.676772 10.9034043-11.134634 10.9034043zm-40.977614-12.8393618V5.24617021h11.548214c2.608248 0 4.304613 1.30468085 4.304613 3.99957447 0 2.69425532-1.696365 3.99957442-4.304613 3.99957442h-11.548214zm68.089338 0V5.24617021h10.306848c2.608248 0 4.263193 1.30468085 4.263193 3.99957447 0 2.69425532-1.654945 3.99957442-4.263193 3.99957442H248.68229zm91.186393 0V5.24617021h10.306848c2.607621 0 4.263193 1.30468085 4.263193 3.99957447 0 2.69425532-1.655572 3.99957442-4.263193 3.99957442h-10.306848zm-216.479586 4.0404256l5.133027-11.23978725 5.1324 11.23978725h-10.265427zm-32.4926487 0h16.8877177v-4.0831915H90.8964483v4.0831915zm58.3623797 0h16.887717v-4.0831915h-16.887717v4.0831915z" fill="#000" mask="url(#b)"/>
  </g>
</svg>